<?xml version="1.0" standalone="no"?>
<!DOCTYPE svg PUBLIC "-//W3C//DTD SVG 20010904//EN"
 "http://www.w3.org/TR/2001/REC-SVG-20010904/DTD/svg10.dtd">
<svg version="1.0" xmlns="http://www.w3.org/2000/svg"
 width="240.000000pt" height="240.000000pt" viewBox="0 0 240.000000 240.000000"
 preserveAspectRatio="xMidYMid meet">
<metadata>
Created by potrace 1.14, written by Peter Selinger 2001-2017
</metadata>
<g transform="translate(0.000000,240.000000) scale(0.100000,-0.100000)"
fill="#000000" stroke="none">
<path d="M455 2020 c-5 -15 -15 -20 -40 -20 -53 0 -65 -26 -65 -142 l0 -98
680 0 680 0 0 110 c0 121 -5 130 -69 130 -24 0 -31 4 -31 20 0 16 -7 20 -30
20 -23 0 -30 -4 -30 -20 0 -17 -7 -20 -46 -20 -37 0 -47 4 -51 20 -4 13 -14
20 -30 20 -16 0 -27 -7 -30 -20 -4 -16 -14 -20 -49 -20 -37 0 -44 3 -44 20 0
15 -7 20 -29 20 -20 0 -30 -6 -34 -20 -4 -16 -14 -20 -51 -20 -39 0 -46 3 -46
20 0 16 -7 20 -30 20 -23 0 -30 -4 -30 -20 0 -17 -7 -20 -44 -20 -35 0 -45 4
-49 20 -3 14 -14 20 -32 20 -18 0 -29 -6 -32 -20 -4 -16 -14 -20 -49 -20 -37
0 -44 3 -44 20 0 16 -7 20 -30 20 -23 0 -30 -4 -30 -20 0 -17 -7 -20 -50 -20
-43 0 -50 3 -50 20 0 16 -7 20 -30 20 -23 0 -30 -4 -30 -20 0 -17 -7 -20 -44
-20 -35 0 -45 4 -49 20 -3 13 -14 20 -30 20 -17 0 -28 -7 -32 -20z m36 -97
c14 -2 23 3 26 17 6 24 23 16 23 -11 0 -18 -6 -20 -52 -17 -39 2 -53 7 -54 18
-1 27 9 33 23 15 7 -10 22 -20 34 -22z m150 -3 c12 0 23 8 26 20 7 28 23 25
23 -5 0 -23 -3 -25 -50 -25 -42 0 -50 3 -50 18 0 28 13 36 22 12 4 -11 16 -20
29 -20z m131 22 c7 -24 52 -22 56 1 5 26 22 20 22 -8 0 -23 -3 -25 -50 -25
-47 0 -50 2 -50 25 0 29 15 34 22 7z m180 -18 c13 3 26 5 31 5 4 1 7 9 7 18 0
13 3 14 11 6 24 -24 2 -43 -51 -43 -42 0 -50 3 -50 18 0 28 13 36 22 12 5 -14
14 -19 30 -16z m130 18 c7 -24 52 -22 56 1 5 26 22 20 22 -8 0 -23 -3 -25 -50
-25 -47 0 -50 2 -50 25 0 29 15 34 22 7z m188 -17 c16 -3 24 1 27 15 6 24 23
16 23 -11 0 -16 -7 -19 -50 -19 -48 0 -50 1 -50 28 1 25 2 26 14 9 8 -10 24
-20 36 -22z m141 2 c12 -3 27 3 39 16 l20 21 0 -27 c0 -26 -2 -27 -50 -27 -42
0 -50 3 -50 18 0 24 14 38 18 19 2 -8 12 -17 23 -20z m141 15 c7 -25 49 -26
55 -1 8 27 23 24 23 -6 0 -23 -3 -25 -50 -25 -47 0 -50 2 -50 25 0 29 15 34
22 7z"/>
<path d="M1320 1570 l0 -70 70 0 70 0 0 70 0 70 -70 0 -70 0 0 -70z"/>
<path d="M1500 1570 l0 -70 70 0 70 0 0 70 0 70 -70 0 -70 0 0 -70z"/>
<path d="M1322 1383 l3 -66 68 -1 67 -1 0 68 0 67 -70 0 -71 0 3 -67z"/>
<path d="M1502 1384 l3 -65 68 -3 67 -4 0 69 0 69 -70 0 -71 0 3 -66z"/>
<path d="M1388 1263 l-68 -4 0 -64 c0 -36 2 -65 4 -65 2 0 27 16 56 35 29 19
58 35 66 35 9 0 14 12 14 35 0 19 -1 34 -2 33 -2 -1 -33 -3 -70 -5z"/>
<path d="M1568 1262 c-57 -2 -68 -6 -68 -20 0 -16 8 -17 68 -14 74 5 75 5 70
24 -2 9 -21 12 -70 10z"/>
<path d="M1595 1100 c-8 -14 3 -30 21 -30 8 0 14 9 14 20 0 21 -24 28 -35 10z"/>
<path d="M1724 929 c-54 -54 -97 -89 -109 -89 -12 0 -44 24 -75 55 -53 54 -80
68 -80 42 0 -7 25 -37 55 -67 30 -30 55 -58 55 -62 0 -4 -44 -9 -97 -11 l-98
-3 99 -2 c85 -2 97 -4 92 -18 -10 -25 2 -33 33 -24 19 5 33 4 40 -3 18 -18 38
8 21 28 -8 10 -9 15 -2 15 6 0 9 7 6 15 -4 9 24 44 80 99 47 47 86 89 86 95 0
28 -24 12 -106 -70z"/>
<path d="M1307 814 c-14 -15 -6 -34 14 -34 14 0 19 5 17 17 -3 18 -20 27 -31
17z"/>
<path d="M1897 814 c-14 -14 -7 -35 11 -32 9 2 17 10 17 17 0 16 -18 25 -28
15z"/>
<path d="M1595 510 c-8 -13 3 -30 20 -30 14 0 27 24 18 34 -10 9 -31 7 -38 -4z"/>
</g>
</svg>
